<?xml version="1.0" encoding="UTF-8" standalone="no"?>
<svg
   xmlns:dc="http://purl.org/dc/elements/1.1/"
   xmlns:cc="http://creativecommons.org/ns#"
   xmlns:rdf="http://www.w3.org/1999/02/22-rdf-syntax-ns#"
   xmlns:svg="http://www.w3.org/2000/svg"
   xmlns="http://www.w3.org/2000/svg"
   xmlns:sodipodi="http://sodipodi.sourceforge.net/DTD/sodipodi-0.dtd"
   xmlns:inkscape="http://www.inkscape.org/namespaces/inkscape"
   version="1.1"
   id="svg2"
   xml:space="preserve"
   width="145.33333"
   height="145.33333"
   viewBox="0 0 145.33333 145.33333"
   sodipodi:docname="shutterstock_1124686886 (1).eps"><metadata
     id="metadata8"><rdf:RDF><cc:Work
         rdf:about=""><dc:format>image/svg+xml</dc:format><dc:type
           rdf:resource="http://purl.org/dc/dcmitype/StillImage" /></cc:Work></rdf:RDF></metadata><defs
     id="defs6" /><sodipodi:namedview
     pagecolor="#ffffff"
     bordercolor="#666666"
     borderopacity="1"
     objecttolerance="10"
     gridtolerance="10"
     guidetolerance="10"
     inkscape:pageopacity="0"
     inkscape:pageshadow="2"
     inkscape:window-width="640"
     inkscape:window-height="480"
     id="namedview4" /><g
     id="g10"
     inkscape:groupmode="layer"
     inkscape:label="ink_ext_XXXXXX"
     transform="matrix(1.3333333,0,0,-1.3333333,0,145.33333)"><g
       id="g12"
       transform="scale(0.1)"><path
         d="M 4.35938,1080.51 H 1081.42 V 3.44141 H 4.35938 V 1080.51"
         style="fill:#000000;fill-opacity:1;fill-rule:evenodd;stroke:none"
         id="path14" /><path
         d="m 534.566,360.309 c 40.2,0 17.602,-17.965 8.622,-26.946 -9.747,-9.746 9.136,-60.476 50.386,-28.375 16.352,12.719 25.485,30.637 29.465,48.492 5.242,23.524 -2.332,49.954 -10.715,76.958 -29.453,94.855 -30.015,55.816 8.965,121.113 41.762,69.949 55.836,119.508 32.274,218.476 -92.079,-84.379 -84.875,-87.125 -118.997,-204.23 -42.218,157.555 -33.218,146.453 -133,246.23 -35.464,-99.668 -20.039,-186.496 46.274,-260.476 46.144,-60.449 38.422,-26.258 8.965,-121.113 C 440.746,378.715 440.426,324.25 479.863,300 c 38.891,-22.457 54.532,24.387 45.551,33.363 -8.976,8.981 -31.051,26.946 9.152,26.946"
         style="fill:#00f8f0;fill-opacity:1;fill-rule:evenodd;stroke:none"
         id="path16" /><path
         d="m 572.363,338.258 c 40.203,0 17.602,-17.965 8.625,-26.942 -9.746,-9.75 9.133,-60.48 50.387,-28.378 16.352,12.722 25.484,30.64 29.461,48.496 5.242,23.523 -2.328,49.949 -10.715,76.953 -29.449,94.855 -30.012,55.82 8.969,121.113 41.758,69.949 55.836,119.508 32.273,218.48 -92.082,-84.382 -84.875,-87.125 -119,-204.23 -42.218,157.555 -33.218,146.449 -132.996,246.227 -35.465,-99.668 -20.043,-186.493 46.274,-260.477 46.14,-60.445 38.418,-26.258 8.964,-121.113 -16.058,-51.719 -16.378,-106.184 23.059,-130.438 38.891,-22.453 54.527,24.391 45.551,33.367 -8.977,8.977 -31.051,26.942 9.148,26.942"
         style="fill:#ff004f;fill-opacity:1;fill-rule:evenodd;stroke:none"
         id="path18" /><path
         d="m 572.363,338.258 c 40.203,0 17.602,-17.965 8.625,-26.942 -2.668,-2.668 -3.191,-8.406 -1.695,-14.679 4.41,1.668 9.172,4.375 14.281,8.351 16.352,12.719 25.485,30.637 29.465,48.492 5.242,23.524 -2.332,49.954 -10.715,76.958 -29.453,94.855 -30.015,55.816 8.965,121.113 34.277,57.414 49.906,101.09 41.375,169.625 -62.254,-59.821 -60.207,-74.153 -90.301,-177.426 -8.875,33.121 -15.484,58.789 -21.324,79.602 -4.598,-15.723 -9.73,-34.403 -16.473,-57.555 -36.722,137.047 -34.695,146.484 -99.211,212.285 -30.136,-94.699 -13.375,-177.559 50.286,-248.582 46.14,-60.445 38.418,-26.258 8.964,-121.113 -13.136,-42.317 -15.742,-86.473 5.348,-114.414 23.965,0.402 32.692,32.168 25.461,39.39 -8.976,8.981 -31.051,26.946 9.152,26.946 40.2,0 17.602,-17.965 8.622,-26.946 -7.02,-7.023 0.82,-35.328 21.187,-38.582 2.059,7.039 1.688,13.692 -1.16,16.535 -8.977,8.977 -31.051,26.942 9.148,26.942"
         style="fill:#ffffff;fill-opacity:1;fill-rule:evenodd;stroke:none"
         id="path20" /></g></g></svg>
